
<svg xmlns="http://www.w3.org/2000/svg" width="1440" height="905" fill="none"><g clip-path="url(#a)"><path fill="#080D27" d="M0 0h1440v905H0z"/><circle cx="628.5" cy="628.5" r="628.5" stroke="url(#b)" stroke-width="300" opacity=".3" transform="matrix(-1 0 0 1 1841 -543)"/><g filter="url(#c)"><circle cx="146.5" cy="-16.5" r="535.5" fill="url(#d)"/></g><path fill="url(#e)" d="M462.339 68.05a944.236 944.236 0 0 0-67.846 48.697c-21.829 17.269-43.039 35.44-61.872 55.907-9.323 10.263-18.236 21.073-25.019 33.166-3.373 6.033-6.208 12.403-7.661 19.135-.676 3.356-1.07 6.786-.875 10.202.232 3.389 1.02 6.76 2.401 9.857 1.349 3.093 3.273 6.04 5.754 8.285.639.548 1.163 1.209 1.879 1.67l2.153 1.351c1.354 1.009 3.051 1.447 4.606 2.191 6.395 2.447 13.338 3.344 20.203 3.871 13.827.84 27.759-.194 41.518-1.84 27.577-3.478 54.831-9.479 81.803-16.237 26.985-6.853 53.716-14.656 80.241-23.074 53.059-16.9 105.394-36.022 157.1-56.667 103.489-41.149 204.754-87.927 302.992-140.417 49.094-26.297 97.394-54.077 144.524-83.75 47.16-29.605 93.18-61.099 137.04-95.443-87.38 69.26-182.78 127.693-280.82 180.602-98.175 52.727-199.385 99.807-302.852 141.252-51.788 20.536-104.241 39.576-157.383 56.366-26.58 8.346-53.374 16.139-80.414 22.919-27.031 6.717-54.34 12.645-82.04 16.073-13.855 1.632-27.846 2.625-41.832 1.762-6.957-.573-13.995-1.483-20.637-4.031-1.582-.78-3.338-1.26-4.784-2.314l-2.271-1.433c-.744-.497-1.327-1.2-2.025-1.788-2.65-2.433-4.624-5.485-6.046-8.751a31.187 31.187 0 0 1-2.497-10.327c-.176-3.544.235-7.101.925-10.553 1.513-6.919 4.425-13.376 7.844-19.5 6.897-12.207 15.851-23.076 25.27-33.326 19.052-20.402 40.408-38.455 62.378-55.573 22.026-17.044 44.799-33.168 68.234-48.219l.009-.063Z"/><path fill="#BDDDFF" d="M360.98 57.003c0 .427-.343.77-.77.77a.768.768 0 0 1-.77-.77c0-.426.343-.77.77-.77s.77.344.77.77Z"/><path fill="url(#n)" d="M64.75 86.58c0 1.54-1.25 2.79-2.79 2.79s-2.79-1.25-2.79-2.79 1.25-2.79 2.79-2.79 2.79 1.25 2.79 2.79Z" style="mix-blend-mode:screen"/><path fill="#BDDDFF" d="M62.738 86.8c0 .428-.343.77-.77.77a.768.768 0 0 1-.77-.77c0-.426.343-.77.77-.77s.77.344.77.77Z"/><path fill="url(#o)" d="M221.78 219.407a2.791 2.791 0 0 1-5.58 0 2.791 2.791 0 0 1 5.58 0Z" style="mix-blend-mode:screen"/><path fill="#BDDDFF" d="M218.99 220.39a.77.77 0 1 0 0-1.54.77.77 0 0 0 0 1.54Z"/><path fill="url(#p)" d="M305.631 104.387c0 1.539-1.25 2.79-2.79 2.79a2.791 2.791 0 1 1 2.79-2.79Z" style="mix-blend-mode:screen"/><path fill="#BDDDFF" d="M302.841 105.378a.77.77 0 1 0 0-1.54.77.77 0 0 0 0 1.54Z"/><path fill="url(#q)" d="M251.463 196.691a2.791 2.791 0 0 1-5.58 0 2.791 2.791 0 0 1 5.58 0Z" style="mix-blend-mode:screen"/><path fill="#BDDDFF" d="M249.451 196.905a.768.768 0 0 1-.77.769.768.768 0 0 1-.77-.769c0-.427.343-.77.77-.77s.77.343.77.77Z"/><path fill="url(#r)" d="M253.011 201.196a1.715 1.715 0 1 0 0-3.43 1.715 1.715 0 0 0 0 3.43Z" style="mix-blend-mode:screen"/><path fill="#BDDDFF" d="M253.011 200.083a.472.472 0 1 0 0-.945.472.472 0 0 0 0 .945Z"/><path fill="url(#s)" d="M71.756 164.66a1.715 1.715 0 1 0 0-3.43 1.715 1.715 0 0 0 0 3.43Z" style="mix-blend-mode:screen"/><path fill="#BDDDFF" d="M71.756 163.547a.472.472 0 1 0 .001-.944.472.472 0 0 0-.001.944Z"/><path fill="url(#t)" d="M84.867 233.387a1.715 1.715 0 1 0 0-3.43 1.715 1.715 0 0 0 0 3.43Z" style="mix-blend-mode:screen"/><path fill="#BDDDFF" d="M85.347 231.809a.475.475 0 0 1-.472.473.475.475 0 0 1-.473-.473c0-.259.214-.472.473-.472s.472.213.472.472Z"/><path fill="url(#u)" d="M261.015 181.888a1.715 1.715 0 1 0 0-3.43 1.715 1.715 0 0 0 0 3.43Z" style="mix-blend-mode:screen"/><path fill="#BDDDFF" d="M261.015 180.775a.472.472 0 1 0 0-.945.472.472 0 0 0 0 .945Z"/><path fill="url(#v)" d="M184.002 133.048a1.715 1.715 0 1 0 0-3.43 1.715 1.715 0 0 0 0 3.43Z" style="mix-blend-mode:screen"/><path fill="#BDDDFF" d="M184.002 131.935a.472.472 0 1 0 0-.943.472.472 0 0 0 0 .943Z"/><path fill="url(#w)" d="M247.606 195.616a1.715 1.715 0 1 0 0-3.43 1.715 1.715 0 0 0 0 3.43Z" style="mix-blend-mode:screen"/><path fill="#BDDDFF" d="M248.079 194.031a.475.475 0 0 1-.473.472.474.474 0 0 1-.472-.472c0-.259.213-.473.472-.473s.473.214.473.473Z"/><path fill="url(#x)" d="M221.186 216.35a1.715 1.715 0 1 0 0-3.43 1.715 1.715 0 0 0 0 3.43Z" style="mix-blend-mode:screen"/><path fill="#BDDDFF" d="M221.186 215.245a.472.472 0 1 0 0-.945.472.472 0 0 0 0 .945Z"/><path fill="url(#y)" d="M251.463 188.885a1.715 1.715 0 1 0 0-3.43 1.715 1.715 0 0 0 0 3.43Z" style="mix-blend-mode:screen"/><path fill="#BDDDFF" d="M251.944 187.3a.475.475 0 0 1-.473.472.475.475 0 0 1-.473-.472c0-.259.214-.473.473-.473s.473.214.473.473Z"/><path fill="url(#z)" d="M158.229 145.664a2.791 2.791 0 0 1-5.58 0 2.791 2.791 0 0 1 5.58 0Z" style="mix-blend-mode:screen"/><path fill="#BDDDFF" d="M156.216 145.878a.767.767 0 0 1-.769.769.768.768 0 0 1-.77-.769c0-.427.343-.77.77-.77.426 0 .769.343.769.77Z"/><path fill="url(#A)" d="M159.776 150.161a1.715 1.715 0 1 0 .002-3.43 1.715 1.715 0 0 0-.002 3.43Z" style="mix-blend-mode:screen"/><path fill="#BDDDFF" d="M159.776 149.056a.472.472 0 1 0 .001-.945.472.472 0 0 0-.001.945Z"/><path fill="url(#B)" d="M154.227 128.261a1.715 1.715 0 1 0 0-3.43 1.715 1.715 0 0 0 0 3.43Z" style="mix-blend-mode:screen"/><path fill="#BDDDFF" d="M154.7 126.683c0 .26-.214.473-.473.473a.475.475 0 0 1-.473-.473c0-.259.214-.472.473-.472s.473.213.473.472Z"/><path fill="url(#C)" d="M157.756 118.23a1.715 1.715 0 1 0 0-3.43 1.715 1.715 0 0 0 0 3.43Z" style="mix-blend-mode:screen"/><path fill="#BDDDFF" d="M158.229 116.652a.475.475 0 0 1-.473.472.474.474 0 0 1-.472-.472c0-.259.213-.473.472-.473s.473.214.473.473Z"/><path fill="url(#D)" d="M285.53 206.159a1.715 1.715 0 1 0 0-3.43 1.715 1.715 0 0 0 0 3.43Z" style="mix-blend-mode:screen"/><path fill="#BDDDFF" d="M285.53 205.046a.472.472 0 1 0 0-.945.472.472 0 0 0 0 .945Z"/><path fill="url(#E)" d="M271.984 196.95a4.78 4.78 0 1 0 0-9.559 4.78 4.78 0 0 0 0 9.559Z" style="mix-blend-mode:screen"/><path fill="#BDDDFF" d="M273.303 192.544a1.327 1.327 0 1 1-2.651 0 1.327 1.327 0 0 1 2.651 0Z"/><path fill="url(#F)" d="M195.268 214.635a4.782 4.782 0 0 1-4.779 4.78 4.782 4.782 0 0 1-4.78-4.78 4.782 4.782 0 0 1 4.78-4.779 4.782 4.782 0 0 1 4.779 4.779Z" style="mix-blend-mode:screen"/><path fill="#BDDDFF" d="M191.815 215.009a1.328 1.328 0 0 1-2.653 0c0-.732.595-1.327 1.327-1.327.731 0 1.326.595 1.326 1.327Z"/><path fill="url(#G)" d="M54.567 74.642a4.784 4.784 0 0 1-9.567 0 4.777 4.777 0 0 1 4.78-4.779 4.782 4.782 0 0 1 4.779 4.78h.008Z" style="mix-blend-mode:screen"/><path fill="#BDDDFF" d="M49.78 76.342a1.326 1.326 0 1 0 0-2.652 1.326 1.326 0 0 0 0 2.652Z"/><path fill="url(#H)" d="M308.39 92.335a4.782 4.782 0 0 1-4.779 4.78 4.782 4.782 0 0 1-4.78-4.78 4.782 4.782 0 0 1 4.78-4.78 4.782 4.782 0 0 1 4.779 4.78Z" style="mix-blend-mode:screen"/><path fill="#BDDDFF" d="M304.937 92.7a1.327 1.327 0 1 1-2.654 0 1.327 1.327 0 0 1 2.654 0Z"/><g fill="#fff" style="mix-blend-mode:soft-light"><path d="M191.93 164.75a1.01 1.01 0 1 0 0-2.02 1.01 1.01 0 0 0 0 2.02ZM217.31 285.24c0 .56.45 1.01 1.01 1.01s1.01-.45 1.01-1.01-.45-1.01-1.01-1.01-1.01.45-1.01 1.01ZM37.01 134.24c0 .56.45 1.01 1.01 1.01s1.01-.45 1.01-1.01-.45-1.01-1.01-1.01-1.01.45-1.01 1.01ZM492.69 198.73a1.01 1.01 0 1 0 0-2.02 1.01 1.01 0 0 0 0 2.02ZM46.89 278.13a1.01 1.01 0 1 0 0-2.02 1.01 1.01 0 0 0 0 2.02ZM141.16 101.33c0 .56.45 1.01 1.01 1.01s1.01-.45 1.01-1.01-.45-1.01-1.01-1.01-1.01.45-1.01 1.01ZM165.38 58.02a1.01 1.01 0 1 0 0-2.02 1.01 1.01 0 0 0 0 2.02ZM163.35 291.24c0 .56.45 1.01 1.01 1.01s1.01-.45 1.01-1.01-.45-1.01-1.01-1.01-1.01.45-1.01 1.01ZM150.76 254.5c0 .56.45 1.01 1.01 1.01s1.01-.45 1.01-1.01-.45-1.01-1.01-1.01-1.01.45-1.01 1.01ZM246.71 288.58c0 .56.45 1.01 1.01 1.01s1.01-.45 1.01-1.01-.45-1.01-1.01-1.01-1.01.45-1.01 1.01ZM732.82 79.93a1.01 1.01 0 1 0 0-2.02 1.01 1.01 0 0 0 0 2.02ZM36.28 384.84c0 .56.45 1.01 1.01 1.01s1.01-.45 1.01-1.01-.45-1.01-1.01-1.01-1.01.45-1.01 1.01ZM31.01 299.98a1.01 1.01 0 1 0 0-2.02 1.01 1.01 0 0 0 0 2.02ZM339.7 363.97a1.01 1.01 0 1 0 0-2.02 1.01 1.01 0 0 0 0 2.02ZM582.51 373.94c0 .56.45 1.01 1.01 1.01s1.01-.45 1.01-1.01-.45-1.01-1.01-1.01-1.01.45-1.01 1.01ZM673.71 321.39a1.01 1.01 0 1 0 0-2.02 1.01 1.01 0 0 0 0 2.02ZM797.75 249.4a1.01 1.01 0 1 0 0-2.02 1.01 1.01 0 0 0 0 2.02ZM349.91 119.25c0 .56.45 1.01 1.01 1.01s1.01-.45 1.01-1.01-.45-1.01-1.01-1.01-1.01.45-1.01 1.01ZM411.56 78.92a1.01 1.01 0 1 0 0-2.02 1.01 1.01 0 0 0 0 2.02ZM96.09 89.97c0 .56.45 1.01 1.01 1.01s1.01-.45 1.01-1.01-.45-1.01-1.01-1.01-1.01.45-1.01 1.01ZM51.25 65.59c0 .56.45 1.01 1.01 1.01s1.01-.45 1.01-1.01-.45-1.01-1.01-1.01-1.01.45-1.01 1.01ZM410.11 84.64a1.01 1.01 0 1 0 0-2.02 1.01 1.01 0 0 0 0 2.02ZM501.67 86.67a1.01 1.01 0 1 0 0-2.02 1.01 1.01 0 0 0 0 2.02ZM37.01 362.96a1.01 1.01 0 1 0 0-2.02 1.01 1.01 0 0 0 0 2.02ZM604.48 129.53a1.01 1.01 0 1 0 0-2.02 1.01 1.01 0 0 0 0 2.02ZM747.48 136.69a1.01 1.01 0 1 0 0-2.02 1.01 1.01 0 0 0 0 2.02ZM871.26 95.25c0 .56.45 1.01 1.01 1.01s1.01-.45 1.01-1.01-.45-1.01-1.01-1.01-1.01.45-1.01 1.01ZM279.23 153.97c0 .56.45 1.01 1.01 1.01s1.01-.45 1.01-1.01-.45-1.01-1.01-1.01-1.01.45-1.01 1.01ZM68 283.97c0 .56.45 1.01 1.01 1.01s1.01-.45 1.01-1.01-.45-1.01-1.01-1.01-1.01.45-1.01 1.01Z"/></g></g><defs><radialGradient id="d" cx="0" cy="0" r="1" gradientTransform="rotate(90 81.5 65) scale(535.5)" gradientUnits="userSpaceOnUse"><stop stop-color="#3A4E9C"/><stop offset="1" stop-color="#3A4E9C" stop-opacity="0"/></radialGradient><radialGradient id="f" cx="0" cy="0" r="1" gradientTransform="translate(337.518 187.489) scale(27.4896)" gradientUnits="userSpaceOnUse"><stop stop-color="#2E00A7"/><stop offset=".09" stop-color="#270091"/><stop offset=".31" stop-color="#19005D"/><stop offset=".52" stop-color="#0E0035"/><stop offset=".71" stop-color="#060017"/><stop offset=".88" stop-color="#010006"/><stop offset="1"/></radialGradient><radialGradient id="g" cx="0" cy="0" r="1" gradientTransform="translate(337.5 187.487) scale(12.6955)" gradientUnits="userSpaceOnUse"><stop stop-color="#8647A7"/><stop offset=".09" stop-color="#743D91"/><stop offset=".31" stop-color="#4B275D"/><stop offset=".52" stop-color="#2A1635"/><stop offset=".71" stop-color="#130A17"/><stop offset=".88" stop-color="#050206"/><stop offset="1"/></radialGradient><radialGradient id="h" cx="0" cy="0" r="1" gradientTransform="translate(379.244 119.967) scale(17.0669)" gradientUnits="userSpaceOnUse"><stop stop-color="#C0D6FA"/><stop offset=".17" stop-color="#B5C7F0"/><stop offset=".49" stop-color="#98A2D8"/><stop offset=".92" stop-color="#6967B1"/><stop offset="1" stop-color="#605BA9"/></radialGradient><radialGradient id="i" cx="0" cy="0" r="1" gradientTransform="matrix(20 0 0 20 376 128)" gradientUnits="userSpaceOnUse"><stop offset=".55" stop-color="#005CFF"/><stop offset=".82" stop-color="#002260"/><stop offset="1"/></radialGradient><radialGradient id="j" cx="0" cy="0" r="1" gradientTransform="translate(376.945 126.551) scale(16.2388)" gradientUnits="userSpaceOnUse"><stop offset=".55" stop-color="#005CFF"/><stop offset=".82" stop-color="#002260"/><stop offset="1"/></radialGradient><radialGradient id="k" cx="0" cy="0" r="1" gradientTransform="translate(378.679 120.354) scale(16.5685)" gradientUnits="userSpaceOnUse"><stop stop-color="#2395C7"/><stop offset=".22" stop-color="#2486BB"/><stop offset=".63" stop-color="#26629C"/><stop offset="1" stop-color="#2A3B7C"/></radialGradient><radialGradient id="l" cx="0" cy="0" r="1" gradientTransform="matrix(15.7787 0 0 15.9398 378.194 121.632)" gradientUnits="userSpaceOnUse"><stop offset=".28" stop-color="#1B5190"/><stop offset=".43" stop-color="#1A4C8C"/><stop offset=".61" stop-color="#183E82"/><stop offset=".79" stop-color="#142671"/><stop offset=".99" stop-color="#0F065A"/><stop offset="1" stop-color="#0F0459"/></radialGradient><radialGradient id="m" cx="0" cy="0" r="1" gradientTransform="translate(360.21 56.79) scale(2.78994)" gradientUnits="userSpaceOnUse"><stop stop-color="#2E00A7"/><stop offset=".09" stop-color="#270091"/><stop offset=".31" stop-color="#19005D"/><stop offset=".52" stop-color="#0E0035"/><stop offset=".71" stop-color="#060017"/><stop offset=".88" stop-color="#010006"/><stop offset="1"/></radialGradient><radialGradient id="n" cx="0" cy="0" r="1" gradientTransform="translate(61.96 86.58) scale(2.78994)" gradientUnits="userSpaceOnUse"><stop stop-color="#2E00A7"/><stop offset=".09" stop-color="#270091"/><stop offset=".31" stop-color="#19005D"/><stop offset=".52" stop-color="#0E0035"/><stop offset=".71" stop-color="#060017"/><stop offset=".88" stop-color="#010006"/><stop offset="1"/></radialGradient><radialGradient id="o" cx="0" cy="0" r="1" gradientTransform="translate(218.99 219.407) scale(2.78994)" gradientUnits="userSpaceOnUse"><stop stop-color="#2E00A7"/><stop offset=".09" stop-color="#270091"/><stop offset=".31" stop-color="#19005D"/><stop offset=".52" stop-color="#0E0035"/><stop offset=".71" stop-color="#060017"/><stop offset=".88" stop-color="#010006"/><stop offset="1"/></radialGradient><radialGradient id="p" cx="0" cy="0" r="1" gradientTransform="translate(302.841 104.387) scale(2.78994)" gradientUnits="userSpaceOnUse"><stop stop-color="#2E00A7"/><stop offset=".09" stop-color="#270091"/><stop offset=".31" stop-color="#19005D"/><stop offset=".52" stop-color="#0E0035"/><stop offset=".71" stop-color="#060017"/><stop offset=".88" stop-color="#010006"/><stop offset="1"/></radialGradient><radialGradient id="q" cx="0" cy="0" r="1" gradientTransform="translate(248.681 196.691) scale(2.78994)" gradientUnits="userSpaceOnUse"><stop stop-color="#2E00A7"/><stop offset=".09" stop-color="#270091"/><stop offset=".31" stop-color="#19005D"/><stop offset=".52" stop-color="#0E0035"/><stop offset=".71" stop-color="#060017"/><stop offset=".88" stop-color="#010006"/><stop offset="1"/></radialGradient><radialGradient id="r" cx="0" cy="0" r="1" gradientTransform="translate(253.011 199.481) scale(1.71513)" gradientUnits="userSpaceOnUse"><stop stop-color="#2E00A7"/><stop offset=".09" stop-color="#270091"/><stop offset=".31" stop-color="#19005D"/><stop offset=".52" stop-color="#0E0035"/><stop offset=".71" stop-color="#060017"/><stop offset=".88" stop-color="#010006"/><stop offset="1"/></radialGradient><radialGradient id="s" cx="0" cy="0" r="1" gradientTransform="translate(71.756 162.945) scale(1.71513)" gradientUnits="userSpaceOnUse"><stop stop-color="#2E00A7"/><stop offset=".09" stop-color="#270091"/><stop offset=".31" stop-color="#19005D"/><stop offset=".52" stop-color="#0E0035"/><stop offset=".71" stop-color="#060017"/><stop offset=".88" stop-color="#010006"/><stop offset="1"/></radialGradient><radialGradient id="t" cx="0" cy="0" r="1" gradientTransform="translate(84.867 231.672) scale(1.71513)" gradientUnits="userSpaceOnUse"><stop stop-color="#2E00A7"/><stop offset=".09" stop-color="#270091"/><stop offset=".31" stop-color="#19005D"/><stop offset=".52" stop-color="#0E0035"/><stop offset=".71" stop-color="#060017"/><stop offset=".88" stop-color="#010006"/><stop offset="1"/></radialGradient><radialGradient id="u" cx="0" cy="0" r="1" gradientTransform="translate(261.015 180.172) scale(1.71513)" gradientUnits="userSpaceOnUse"><stop stop-color="#2E00A7"/><stop offset=".09" stop-color="#270091"/><stop offset=".31" stop-color="#19005D"/><stop offset=".52" stop-color="#0E0035"/><stop offset=".71" stop-color="#060017"/><stop offset=".88" stop-color="#010006"/><stop offset="1"/></radialGradient><radialGradient id="v" cx="0" cy="0" r="1" gradientTransform="translate(184.002 131.333) scale(1.71513)" gradientUnits="userSpaceOnUse"><stop stop-color="#2E00A7"/><stop offset=".09" stop-color="#270091"/><stop offset=".31" stop-color="#19005D"/><stop offset=".52" stop-color="#0E0035"/><stop offset=".71" stop-color="#060017"/><stop offset=".88" stop-color="#010006"/><stop offset="1"/></radialGradient><radialGradient id="w" cx="0" cy="0" r="1" gradientTransform="translate(247.606 193.901) scale(1.71513)" gradientUnits="userSpaceOnUse"><stop stop-color="#2E00A7"/><stop offset=".09" stop-color="#270091"/><stop offset=".31" stop-color="#19005D"/><stop offset=".52" stop-color="#0E0035"/><stop offset=".71" stop-color="#060017"/><stop offset=".88" stop-color="#010006"/><stop offset="1"/></radialGradient><radialGradient id="x" cx="0" cy="0" r="1" gradientTransform="translate(221.186 214.635) scale(1.71513)" gradientUnits="userSpaceOnUse"><stop stop-color="#2E00A7"/><stop offset=".09" stop-color="#270091"/><stop offset=".31" stop-color="#19005D"/><stop offset=".52" stop-color="#0E0035"/><stop offset=".71" stop-color="#060017"/><stop offset=".88" stop-color="#010006"/><stop offset="1"/></radialGradient><radialGradient id="y" cx="0" cy="0" r="1" gradientTransform="translate(251.463 187.17) scale(1.71513)" gradientUnits="userSpaceOnUse"><stop stop-color="#2E00A7"/><stop offset=".09" stop-color="#270091"/><stop offset=".31" stop-color="#19005D"/><stop offset=".52" stop-color="#0E0035"/><stop offset=".71" stop-color="#060017"/><stop offset=".88" stop-color="#010006"/><stop offset="1"/></radialGradient><radialGradient id="z" cx="0" cy="0" r="1" gradientTransform="translate(155.447 145.664) scale(2.78994)" gradientUnits="userSpaceOnUse"><stop stop-color="#2E00A7"/><stop offset=".09" stop-color="#270091"/><stop offset=".31" stop-color="#19005D"/><stop offset=".52" stop-color="#0E0035"/><stop offset=".71" stop-color="#060017"/><stop offset=".88" stop-color="#010006"/><stop offset="1"/></radialGradient><radialGradient id="A" cx="0" cy="0" r="1" gradientTransform="translate(159.776 148.446) scale(1.71513)" gradientUnits="userSpaceOnUse"><stop stop-color="#2E00A7"/><stop offset=".09" stop-color="#270091"/><stop offset=".31" stop-color="#19005D"/><stop offset=".52" stop-color="#0E0035"/><stop offset=".71" stop-color="#060017"/><stop offset=".88" stop-color="#010006"/><stop offset="1"/></radialGradient><radialGradient id="B" cx="0" cy="0" r="1" gradientTransform="translate(154.227 126.546) scale(1.71513)" gradientUnits="userSpaceOnUse"><stop stop-color="#2E00A7"/><stop offset=".09" stop-color="#270091"/><stop offset=".31" stop-color="#19005D"/><stop offset=".52" stop-color="#0E0035"/><stop offset=".71" stop-color="#060017"/><stop offset=".88" stop-color="#010006"/><stop offset="1"/></radialGradient><radialGradient id="C" cx="0" cy="0" r="1" gradientTransform="translate(157.756 116.515) scale(1.71513)" gradientUnits="userSpaceOnUse"><stop stop-color="#2E00A7"/><stop offset=".09" stop-color="#270091"/><stop offset=".31" stop-color="#19005D"/><stop offset=".52" stop-color="#0E0035"/><stop offset=".71" stop-color="#060017"/><stop offset=".88" stop-color="#010006"/><stop offset="1"/></radialGradient><radialGradient id="D" cx="0" cy="0" r="1" gradientTransform="translate(285.53 204.443) scale(1.71513)" gradientUnits="userSpaceOnUse"><stop stop-color="#2E00A7"/><stop offset=".09" stop-color="#270091"/><stop offset=".31" stop-color="#19005D"/><stop offset=".52" stop-color="#0E0035"/><stop offset=".71" stop-color="#060017"/><stop offset=".88" stop-color="#010006"/><stop offset="1"/></radialGradient><radialGradient id="E" cx="0" cy="0" r="1" gradientTransform="translate(271.984 192.171) scale(4.77949)" gradientUnits="userSpaceOnUse"><stop stop-color="#2E00A7"/><stop offset=".09" stop-color="#270091"/><stop offset=".31" stop-color="#19005D"/><stop offset=".52" stop-color="#0E0035"/><stop offset=".71" stop-color="#060017"/><stop offset=".88" stop-color="#010006"/><stop offset="1"/></radialGradient><radialGradient id="F" cx="0" cy="0" r="1" gradientTransform="translate(190.489 214.635) scale(4.77949)" gradientUnits="userSpaceOnUse"><stop stop-color="#2E00A7"/><stop offset=".09" stop-color="#270091"/><stop offset=".31" stop-color="#19005D"/><stop offset=".52" stop-color="#0E0035"/><stop offset=".71" stop-color="#060017"/><stop offset=".88" stop-color="#010006"/><stop offset="1"/></radialGradient><radialGradient id="G" cx="0" cy="0" r="1" gradientTransform="translate(49.78 74.642) scale(4.77949)" gradientUnits="userSpaceOnUse"><stop stop-color="#2E00A7"/><stop offset=".09" stop-color="#270091"/><stop offset=".31" stop-color="#19005D"/><stop offset=".52" stop-color="#0E0035"/><stop offset=".71" stop-color="#060017"/><stop offset=".88" stop-color="#010006"/><stop offset="1"/></radialGradient><radialGradient id="H" cx="0" cy="0" r="1" gradientTransform="translate(303.611 92.335) scale(4.77949)" gradientUnits="userSpaceOnUse"><stop stop-color="#2E00A7"/><stop offset=".09" stop-color="#270091"/><stop offset=".31" stop-color="#19005D"/><stop offset=".52" stop-color="#0E0035"/><stop offset=".71" stop-color="#060017"/><stop offset=".88" stop-color="#010006"/><stop offset="1"/></radialGradient><linearGradient id="b" x1="1399.5" x2="601" y1="478.5" y2="1404" gradientUnits="userSpaceOnUse"><stop stop-color="#2E336E"/><stop offset="1" stop-color="#050726"/></linearGradient><linearGradient id="e" x1="748.588" x2="826.619" y1="323.227" y2="-221.568" gradientUnits="userSpaceOnUse"><stop stop-color="rgba(19,81,149,0.1)"/><stop offset="1"/></linearGradient><clipPath id="a"><path fill="#fff" d="M0 0h1440v905H0z"/></clipPath><filter id="c" width="1671" height="1671" x="-689" y="-852" color-interpolation-filters="sRGB" filterUnits="userSpaceOnUse"><feFlood flood-opacity="0" result="BackgroundImageFix"/><feBlend in="SourceGraphic" in2="BackgroundImageFix" result="shape"/><feGaussianBlur result="effect1_foregroundBlur_1_8" stdDeviation="150"/></filter></defs></svg>
